<?xml version="1.0" standalone="no"?>
<!DOCTYPE svg PUBLIC "-//W3C//DTD SVG 20010904//EN"
 "http://www.w3.org/TR/2001/REC-SVG-20010904/DTD/svg10.dtd">
<svg version="1.0" xmlns="http://www.w3.org/2000/svg"
 width="500.000000pt" height="500.000000pt" viewBox="0 0 500.000000 500.000000"
 preserveAspectRatio="xMidYMid meet">
<metadata>
Created by potrace 1.11, written by Peter Selinger 2001-2013
</metadata>
<g transform="translate(0.000000,500.000000) scale(0.100000,-0.100000)"
fill="#000000" stroke="none">
<path d="M2377 4964 c-1 -1 -38 -5 -82 -8 -44 -3 -93 -8 -110 -11 -16 -3 -48
-7 -70 -10 -372 -52 -776 -225 -1112 -477 -130 -97 -369 -337 -469 -470 -246
-329 -419 -737 -470 -1108 -3 -25 -8 -54 -10 -64 -17 -91 -23 -380 -10 -521
29 -325 108 -611 248 -890 128 -255 262 -440 468 -645 283 -284 596 -477 970
-601 140 -46 343 -93 448 -104 152 -16 199 -18 307 -19 170 0 327 13 460 39
103 19 255 57 295 72 8 3 20 7 25 8 44 11 231 88 325 134 249 125 441 262 636
456 142 142 166 168 237 265 27 36 54 72 61 80 48 59 175 287 236 423 60 135
142 399 164 532 19 115 28 178 33 254 43 565 -98 1106 -409 1574 -184 275
-454 537 -742 717 -257 162 -581 288 -861 335 -16 3 -41 8 -55 10 -27 6 -55 9
-180 21 -64 6 -328 12 -333 8z m383 -218 c14 -2 48 -7 75 -11 28 -3 57 -8 65
-10 8 -3 33 -7 55 -11 65 -10 273 -72 370 -111 460 -182 848 -508 1105 -928
168 -274 281 -607 317 -934 10 -86 10 -386 0 -481 -7 -70 -9 -87 -22 -150 -2
-14 -6 -36 -9 -50 -18 -108 -87 -334 -138 -450 -68 -157 -171 -333 -281 -479
-75 -100 -276 -310 -362 -377 -27 -21 -52 -41 -55 -44 -16 -18 -179 -125 -260
-172 -215 -124 -514 -232 -723 -262 -27 -4 -59 -10 -70 -12 -58 -12 -177 -19
-327 -19 -181 0 -249 5 -385 29 -122 22 -118 21 -225 51 -279 78 -541 210
-772 387 -114 87 -310 283 -400 398 -256 330 -415 723 -465 1145 -10 81 -10
393 0 480 34 316 136 630 292 900 176 303 462 598 763 784 229 142 514 255
752 297 14 3 50 9 80 14 30 6 84 13 120 16 36 4 67 8 69 10 5 4 401 -4 431
-10z"/>
<path d="M3078 4235 c-2 -2 -28 -6 -58 -9 -117 -12 -238 -42 -471 -120 -173
-57 -325 -101 -384 -111 -33 -6 -87 -14 -140 -20 -106 -13 -127 -65 -68 -163
51 -84 120 -137 218 -168 22 -6 39 -16 38 -22 -1 -5 -38 -69 -83 -141 -70
-115 -219 -372 -320 -556 -46 -83 -331 -650 -354 -705 -19 -43 -49 -111 -86
-195 -41 -94 -105 -267 -131 -359 -62 -212 -54 -374 23 -487 33 -48 83 -89
111 -89 26 0 60 55 117 190 29 69 68 159 87 200 19 41 46 100 60 130 26 55
243 493 247 497 1 2 32 -4 68 -11 131 -28 343 -4 559 63 389 119 770 381 1008
691 285 371 351 672 220 1011 -75 195 -201 313 -384 359 -43 11 -269 23 -277
15z m297 -405 c64 -31 80 -60 80 -150 0 -89 -6 -125 -34 -204 -105 -296 -434
-621 -811 -804 -177 -85 -285 -125 -462 -172 l-68 -18 29 52 c40 73 259 458
271 476 29 46 129 235 157 296 45 103 90 240 98 305 7 53 8 56 43 66 21 6 121
40 225 76 103 36 187 64 187 62 0 -2 25 5 56 15 84 26 176 26 229 0z"/>
</g>
</svg>
